<mxfile host="app.diagrams.net" modified="2023-04-18T22:31:04.893Z" agent="Mozilla/5.0 (X11; Linux x86_64) AppleWebKit/537.36 (KHTML, like Gecko) Chrome/111.0.0.0 Safari/537.36" etag="I89jFekIPRCt-L3lELJt" version="21.1.9" type="github">
  <diagram name="PÃ¡gina-1" id="DcV6TQG0_Arwee8DVCxa">
    <mxGraphModel dx="1360" dy="807" grid="1" gridSize="10" guides="1" tooltips="1" connect="1" arrows="1" fold="1" page="1" pageScale="1" pageWidth="827" pageHeight="1169" math="0" shadow="0">
      <root>
        <mxCell id="0" />
        <mxCell id="1" parent="0" />
        <mxCell id="DAw_pJzwPGBeUhE9D7Gm-5" value="Caregory" style="shape=table;startSize=30;container=1;collapsible=1;childLayout=tableLayout;fixedRows=1;rowLines=0;fontStyle=1;align=center;resizeLast=1;html=1;" vertex="1" parent="1">
          <mxGeometry y="110" width="180" height="120" as="geometry" />
        </mxCell>
        <mxCell id="DAw_pJzwPGBeUhE9D7Gm-6" value="" style="shape=tableRow;horizontal=0;startSize=0;swimlaneHead=0;swimlaneBody=0;fillColor=none;collapsible=0;dropTarget=0;points=[[0,0.5],[1,0.5]];portConstraint=eastwest;top=0;left=0;right=0;bottom=1;" vertex="1" parent="DAw_pJzwPGBeUhE9D7Gm-5">
          <mxGeometry y="30" width="180" height="30" as="geometry" />
        </mxCell>
        <mxCell id="DAw_pJzwPGBeUhE9D7Gm-7" value="&lt;span style=&quot;font-weight: normal;&quot;&gt;_ID&lt;/span&gt;" style="shape=partialRectangle;connectable=0;fillColor=none;top=0;left=0;bottom=0;right=0;fontStyle=1;overflow=hidden;whiteSpace=wrap;html=1;" vertex="1" parent="DAw_pJzwPGBeUhE9D7Gm-6">
          <mxGeometry width="40" height="30" as="geometry">
            <mxRectangle width="40" height="30" as="alternateBounds" />
          </mxGeometry>
        </mxCell>
        <mxCell id="DAw_pJzwPGBeUhE9D7Gm-8" value="&lt;span style=&quot;font-weight: normal;&quot;&gt;ObjetID&lt;/span&gt;" style="shape=partialRectangle;connectable=0;fillColor=none;top=0;left=0;bottom=0;right=0;align=left;spacingLeft=6;fontStyle=5;overflow=hidden;whiteSpace=wrap;html=1;" vertex="1" parent="DAw_pJzwPGBeUhE9D7Gm-6">
          <mxGeometry x="40" width="140" height="30" as="geometry">
            <mxRectangle width="140" height="30" as="alternateBounds" />
          </mxGeometry>
        </mxCell>
        <mxCell id="DAw_pJzwPGBeUhE9D7Gm-18" value="" style="shape=tableRow;horizontal=0;startSize=0;swimlaneHead=0;swimlaneBody=0;fillColor=none;collapsible=0;dropTarget=0;points=[[0,0.5],[1,0.5]];portConstraint=eastwest;top=0;left=0;right=0;bottom=1;" vertex="1" parent="DAw_pJzwPGBeUhE9D7Gm-5">
          <mxGeometry y="60" width="180" height="30" as="geometry" />
        </mxCell>
        <mxCell id="DAw_pJzwPGBeUhE9D7Gm-19" value="&lt;span style=&quot;font-weight: normal;&quot;&gt;name&lt;span style=&quot;white-space: pre;&quot;&gt; &lt;/span&gt;&lt;/span&gt;" style="shape=partialRectangle;connectable=0;fillColor=none;top=0;left=0;bottom=0;right=0;fontStyle=1;overflow=hidden;whiteSpace=wrap;html=1;" vertex="1" parent="DAw_pJzwPGBeUhE9D7Gm-18">
          <mxGeometry width="40" height="30" as="geometry">
            <mxRectangle width="40" height="30" as="alternateBounds" />
          </mxGeometry>
        </mxCell>
        <mxCell id="DAw_pJzwPGBeUhE9D7Gm-20" value="&lt;span style=&quot;font-weight: 400;&quot;&gt;String&lt;/span&gt;" style="shape=partialRectangle;connectable=0;fillColor=none;top=0;left=0;bottom=0;right=0;align=left;spacingLeft=6;fontStyle=5;overflow=hidden;whiteSpace=wrap;html=1;" vertex="1" parent="DAw_pJzwPGBeUhE9D7Gm-18">
          <mxGeometry x="40" width="140" height="30" as="geometry">
            <mxRectangle width="140" height="30" as="alternateBounds" />
          </mxGeometry>
        </mxCell>
        <mxCell id="DAw_pJzwPGBeUhE9D7Gm-21" value="" style="shape=tableRow;horizontal=0;startSize=0;swimlaneHead=0;swimlaneBody=0;fillColor=none;collapsible=0;dropTarget=0;points=[[0,0.5],[1,0.5]];portConstraint=eastwest;top=0;left=0;right=0;bottom=1;" vertex="1" parent="DAw_pJzwPGBeUhE9D7Gm-5">
          <mxGeometry y="90" width="180" height="30" as="geometry" />
        </mxCell>
        <mxCell id="DAw_pJzwPGBeUhE9D7Gm-22" value="&lt;span style=&quot;font-weight: 400;&quot;&gt;icon&lt;/span&gt;" style="shape=partialRectangle;connectable=0;fillColor=none;top=0;left=0;bottom=0;right=0;fontStyle=1;overflow=hidden;whiteSpace=wrap;html=1;" vertex="1" parent="DAw_pJzwPGBeUhE9D7Gm-21">
          <mxGeometry width="40" height="30" as="geometry">
            <mxRectangle width="40" height="30" as="alternateBounds" />
          </mxGeometry>
        </mxCell>
        <mxCell id="DAw_pJzwPGBeUhE9D7Gm-23" value="&lt;span style=&quot;font-weight: 400;&quot;&gt;String&lt;/span&gt;" style="shape=partialRectangle;connectable=0;fillColor=none;top=0;left=0;bottom=0;right=0;align=left;spacingLeft=6;fontStyle=5;overflow=hidden;whiteSpace=wrap;html=1;" vertex="1" parent="DAw_pJzwPGBeUhE9D7Gm-21">
          <mxGeometry x="40" width="140" height="30" as="geometry">
            <mxRectangle width="140" height="30" as="alternateBounds" />
          </mxGeometry>
        </mxCell>
        <mxCell id="DAw_pJzwPGBeUhE9D7Gm-27" value="Products" style="shape=table;startSize=30;container=1;collapsible=1;childLayout=tableLayout;fixedRows=1;rowLines=0;fontStyle=1;align=center;resizeLast=1;html=1;" vertex="1" parent="1">
          <mxGeometry x="240" y="270" width="186" height="240" as="geometry" />
        </mxCell>
        <mxCell id="DAw_pJzwPGBeUhE9D7Gm-28" value="" style="shape=tableRow;horizontal=0;startSize=0;swimlaneHead=0;swimlaneBody=0;fillColor=none;collapsible=0;dropTarget=0;points=[[0,0.5],[1,0.5]];portConstraint=eastwest;top=0;left=0;right=0;bottom=1;" vertex="1" parent="DAw_pJzwPGBeUhE9D7Gm-27">
          <mxGeometry y="30" width="186" height="30" as="geometry" />
        </mxCell>
        <mxCell id="DAw_pJzwPGBeUhE9D7Gm-29" value="&lt;span style=&quot;font-weight: normal;&quot;&gt;_ID&lt;/span&gt;" style="shape=partialRectangle;connectable=0;fillColor=none;top=0;left=0;bottom=0;right=0;fontStyle=1;overflow=hidden;whiteSpace=wrap;html=1;" vertex="1" parent="DAw_pJzwPGBeUhE9D7Gm-28">
          <mxGeometry width="66" height="30" as="geometry">
            <mxRectangle width="66" height="30" as="alternateBounds" />
          </mxGeometry>
        </mxCell>
        <mxCell id="DAw_pJzwPGBeUhE9D7Gm-30" value="&lt;span style=&quot;font-weight: normal;&quot;&gt;ObjetID&lt;/span&gt;" style="shape=partialRectangle;connectable=0;fillColor=none;top=0;left=0;bottom=0;right=0;align=left;spacingLeft=6;fontStyle=5;overflow=hidden;whiteSpace=wrap;html=1;" vertex="1" parent="DAw_pJzwPGBeUhE9D7Gm-28">
          <mxGeometry x="66" width="120" height="30" as="geometry">
            <mxRectangle width="120" height="30" as="alternateBounds" />
          </mxGeometry>
        </mxCell>
        <mxCell id="DAw_pJzwPGBeUhE9D7Gm-31" value="" style="shape=tableRow;horizontal=0;startSize=0;swimlaneHead=0;swimlaneBody=0;fillColor=none;collapsible=0;dropTarget=0;points=[[0,0.5],[1,0.5]];portConstraint=eastwest;top=0;left=0;right=0;bottom=1;" vertex="1" parent="DAw_pJzwPGBeUhE9D7Gm-27">
          <mxGeometry y="60" width="186" height="30" as="geometry" />
        </mxCell>
        <mxCell id="DAw_pJzwPGBeUhE9D7Gm-32" value="&lt;span style=&quot;font-weight: normal;&quot;&gt;name&lt;span style=&quot;white-space: pre;&quot;&gt; &lt;/span&gt;&lt;/span&gt;" style="shape=partialRectangle;connectable=0;fillColor=none;top=0;left=0;bottom=0;right=0;fontStyle=1;overflow=hidden;whiteSpace=wrap;html=1;" vertex="1" parent="DAw_pJzwPGBeUhE9D7Gm-31">
          <mxGeometry width="66" height="30" as="geometry">
            <mxRectangle width="66" height="30" as="alternateBounds" />
          </mxGeometry>
        </mxCell>
        <mxCell id="DAw_pJzwPGBeUhE9D7Gm-33" value="&lt;span style=&quot;font-weight: 400;&quot;&gt;String&lt;/span&gt;" style="shape=partialRectangle;connectable=0;fillColor=none;top=0;left=0;bottom=0;right=0;align=left;spacingLeft=6;fontStyle=5;overflow=hidden;whiteSpace=wrap;html=1;" vertex="1" parent="DAw_pJzwPGBeUhE9D7Gm-31">
          <mxGeometry x="66" width="120" height="30" as="geometry">
            <mxRectangle width="120" height="30" as="alternateBounds" />
          </mxGeometry>
        </mxCell>
        <mxCell id="DAw_pJzwPGBeUhE9D7Gm-34" value="" style="shape=tableRow;horizontal=0;startSize=0;swimlaneHead=0;swimlaneBody=0;fillColor=none;collapsible=0;dropTarget=0;points=[[0,0.5],[1,0.5]];portConstraint=eastwest;top=0;left=0;right=0;bottom=1;" vertex="1" parent="DAw_pJzwPGBeUhE9D7Gm-27">
          <mxGeometry y="90" width="186" height="30" as="geometry" />
        </mxCell>
        <mxCell id="DAw_pJzwPGBeUhE9D7Gm-35" value="&lt;span style=&quot;font-weight: 400;&quot;&gt;description&lt;/span&gt;" style="shape=partialRectangle;connectable=0;fillColor=none;top=0;left=0;bottom=0;right=0;fontStyle=1;overflow=hidden;whiteSpace=wrap;html=1;" vertex="1" parent="DAw_pJzwPGBeUhE9D7Gm-34">
          <mxGeometry width="66" height="30" as="geometry">
            <mxRectangle width="66" height="30" as="alternateBounds" />
          </mxGeometry>
        </mxCell>
        <mxCell id="DAw_pJzwPGBeUhE9D7Gm-36" value="&lt;span style=&quot;font-weight: 400;&quot;&gt;String&lt;/span&gt;" style="shape=partialRectangle;connectable=0;fillColor=none;top=0;left=0;bottom=0;right=0;align=left;spacingLeft=6;fontStyle=5;overflow=hidden;whiteSpace=wrap;html=1;" vertex="1" parent="DAw_pJzwPGBeUhE9D7Gm-34">
          <mxGeometry x="66" width="120" height="30" as="geometry">
            <mxRectangle width="120" height="30" as="alternateBounds" />
          </mxGeometry>
        </mxCell>
        <mxCell id="DAw_pJzwPGBeUhE9D7Gm-37" value="" style="shape=tableRow;horizontal=0;startSize=0;swimlaneHead=0;swimlaneBody=0;fillColor=none;collapsible=0;dropTarget=0;points=[[0,0.5],[1,0.5]];portConstraint=eastwest;top=0;left=0;right=0;bottom=1;" vertex="1" parent="DAw_pJzwPGBeUhE9D7Gm-27">
          <mxGeometry y="120" width="186" height="30" as="geometry" />
        </mxCell>
        <mxCell id="DAw_pJzwPGBeUhE9D7Gm-38" value="&lt;span style=&quot;font-weight: 400;&quot;&gt;imagePath&lt;/span&gt;" style="shape=partialRectangle;connectable=0;fillColor=none;top=0;left=0;bottom=0;right=0;fontStyle=1;overflow=hidden;whiteSpace=wrap;html=1;" vertex="1" parent="DAw_pJzwPGBeUhE9D7Gm-37">
          <mxGeometry width="66" height="30" as="geometry">
            <mxRectangle width="66" height="30" as="alternateBounds" />
          </mxGeometry>
        </mxCell>
        <mxCell id="DAw_pJzwPGBeUhE9D7Gm-39" value="&lt;span style=&quot;font-weight: 400;&quot;&gt;String&lt;/span&gt;" style="shape=partialRectangle;connectable=0;fillColor=none;top=0;left=0;bottom=0;right=0;align=left;spacingLeft=6;fontStyle=5;overflow=hidden;whiteSpace=wrap;html=1;" vertex="1" parent="DAw_pJzwPGBeUhE9D7Gm-37">
          <mxGeometry x="66" width="120" height="30" as="geometry">
            <mxRectangle width="120" height="30" as="alternateBounds" />
          </mxGeometry>
        </mxCell>
        <mxCell id="DAw_pJzwPGBeUhE9D7Gm-40" value="" style="shape=tableRow;horizontal=0;startSize=0;swimlaneHead=0;swimlaneBody=0;fillColor=none;collapsible=0;dropTarget=0;points=[[0,0.5],[1,0.5]];portConstraint=eastwest;top=0;left=0;right=0;bottom=1;" vertex="1" parent="DAw_pJzwPGBeUhE9D7Gm-27">
          <mxGeometry y="150" width="186" height="30" as="geometry" />
        </mxCell>
        <mxCell id="DAw_pJzwPGBeUhE9D7Gm-41" value="&lt;span style=&quot;font-weight: 400;&quot;&gt;price&lt;/span&gt;" style="shape=partialRectangle;connectable=0;fillColor=none;top=0;left=0;bottom=0;right=0;fontStyle=1;overflow=hidden;whiteSpace=wrap;html=1;" vertex="1" parent="DAw_pJzwPGBeUhE9D7Gm-40">
          <mxGeometry width="66" height="30" as="geometry">
            <mxRectangle width="66" height="30" as="alternateBounds" />
          </mxGeometry>
        </mxCell>
        <mxCell id="DAw_pJzwPGBeUhE9D7Gm-42" value="&lt;span style=&quot;font-weight: 400;&quot;&gt;Number&lt;/span&gt;" style="shape=partialRectangle;connectable=0;fillColor=none;top=0;left=0;bottom=0;right=0;align=left;spacingLeft=6;fontStyle=5;overflow=hidden;whiteSpace=wrap;html=1;" vertex="1" parent="DAw_pJzwPGBeUhE9D7Gm-40">
          <mxGeometry x="66" width="120" height="30" as="geometry">
            <mxRectangle width="120" height="30" as="alternateBounds" />
          </mxGeometry>
        </mxCell>
        <mxCell id="DAw_pJzwPGBeUhE9D7Gm-43" value="" style="shape=tableRow;horizontal=0;startSize=0;swimlaneHead=0;swimlaneBody=0;fillColor=none;collapsible=0;dropTarget=0;points=[[0,0.5],[1,0.5]];portConstraint=eastwest;top=0;left=0;right=0;bottom=1;" vertex="1" parent="DAw_pJzwPGBeUhE9D7Gm-27">
          <mxGeometry y="180" width="186" height="30" as="geometry" />
        </mxCell>
        <mxCell id="DAw_pJzwPGBeUhE9D7Gm-44" value="&lt;span style=&quot;font-weight: 400;&quot;&gt;ingredients&lt;/span&gt;" style="shape=partialRectangle;connectable=0;fillColor=none;top=0;left=0;bottom=0;right=0;fontStyle=1;overflow=hidden;whiteSpace=wrap;html=1;" vertex="1" parent="DAw_pJzwPGBeUhE9D7Gm-43">
          <mxGeometry width="66" height="30" as="geometry">
            <mxRectangle width="66" height="30" as="alternateBounds" />
          </mxGeometry>
        </mxCell>
        <mxCell id="DAw_pJzwPGBeUhE9D7Gm-45" value="&lt;span style=&quot;font-weight: 400;&quot;&gt;[{icon: string, name: string}]&lt;/span&gt;" style="shape=partialRectangle;connectable=0;fillColor=none;top=0;left=0;bottom=0;right=0;align=left;spacingLeft=6;fontStyle=5;overflow=hidden;whiteSpace=wrap;html=1;" vertex="1" parent="DAw_pJzwPGBeUhE9D7Gm-43">
          <mxGeometry x="66" width="120" height="30" as="geometry">
            <mxRectangle width="120" height="30" as="alternateBounds" />
          </mxGeometry>
        </mxCell>
        <mxCell id="DAw_pJzwPGBeUhE9D7Gm-46" value="" style="shape=tableRow;horizontal=0;startSize=0;swimlaneHead=0;swimlaneBody=0;fillColor=none;collapsible=0;dropTarget=0;points=[[0,0.5],[1,0.5]];portConstraint=eastwest;top=0;left=0;right=0;bottom=1;" vertex="1" parent="DAw_pJzwPGBeUhE9D7Gm-27">
          <mxGeometry y="210" width="186" height="30" as="geometry" />
        </mxCell>
        <mxCell id="DAw_pJzwPGBeUhE9D7Gm-47" value="&lt;span style=&quot;font-weight: 400;&quot;&gt;category&lt;/span&gt;" style="shape=partialRectangle;connectable=0;fillColor=none;top=0;left=0;bottom=0;right=0;fontStyle=1;overflow=hidden;whiteSpace=wrap;html=1;" vertex="1" parent="DAw_pJzwPGBeUhE9D7Gm-46">
          <mxGeometry width="66" height="30" as="geometry">
            <mxRectangle width="66" height="30" as="alternateBounds" />
          </mxGeometry>
        </mxCell>
        <mxCell id="DAw_pJzwPGBeUhE9D7Gm-48" value="&lt;span style=&quot;font-weight: 400;&quot;&gt;objetc&lt;/span&gt;" style="shape=partialRectangle;connectable=0;fillColor=none;top=0;left=0;bottom=0;right=0;align=left;spacingLeft=6;fontStyle=5;overflow=hidden;whiteSpace=wrap;html=1;" vertex="1" parent="DAw_pJzwPGBeUhE9D7Gm-46">
          <mxGeometry x="66" width="120" height="30" as="geometry">
            <mxRectangle width="120" height="30" as="alternateBounds" />
          </mxGeometry>
        </mxCell>
        <mxCell id="DAw_pJzwPGBeUhE9D7Gm-52" value="Order" style="shape=table;startSize=30;container=1;collapsible=1;childLayout=tableLayout;fixedRows=1;rowLines=0;fontStyle=1;align=center;resizeLast=1;html=1;" vertex="1" parent="1">
          <mxGeometry x="490" y="540" width="320" height="180" as="geometry" />
        </mxCell>
        <mxCell id="DAw_pJzwPGBeUhE9D7Gm-53" value="" style="shape=tableRow;horizontal=0;startSize=0;swimlaneHead=0;swimlaneBody=0;fillColor=none;collapsible=0;dropTarget=0;points=[[0,0.5],[1,0.5]];portConstraint=eastwest;top=0;left=0;right=0;bottom=1;" vertex="1" parent="DAw_pJzwPGBeUhE9D7Gm-52">
          <mxGeometry y="30" width="320" height="30" as="geometry" />
        </mxCell>
        <mxCell id="DAw_pJzwPGBeUhE9D7Gm-54" value="&lt;span style=&quot;font-weight: normal;&quot;&gt;_ID&lt;/span&gt;" style="shape=partialRectangle;connectable=0;fillColor=none;top=0;left=0;bottom=0;right=0;fontStyle=1;overflow=hidden;whiteSpace=wrap;html=1;" vertex="1" parent="DAw_pJzwPGBeUhE9D7Gm-53">
          <mxGeometry width="66" height="30" as="geometry">
            <mxRectangle width="66" height="30" as="alternateBounds" />
          </mxGeometry>
        </mxCell>
        <mxCell id="DAw_pJzwPGBeUhE9D7Gm-55" value="&lt;span style=&quot;font-weight: normal;&quot;&gt;ObjetID&lt;/span&gt;" style="shape=partialRectangle;connectable=0;fillColor=none;top=0;left=0;bottom=0;right=0;align=left;spacingLeft=6;fontStyle=5;overflow=hidden;whiteSpace=wrap;html=1;" vertex="1" parent="DAw_pJzwPGBeUhE9D7Gm-53">
          <mxGeometry x="66" width="254" height="30" as="geometry">
            <mxRectangle width="254" height="30" as="alternateBounds" />
          </mxGeometry>
        </mxCell>
        <mxCell id="DAw_pJzwPGBeUhE9D7Gm-56" value="" style="shape=tableRow;horizontal=0;startSize=0;swimlaneHead=0;swimlaneBody=0;fillColor=none;collapsible=0;dropTarget=0;points=[[0,0.5],[1,0.5]];portConstraint=eastwest;top=0;left=0;right=0;bottom=1;" vertex="1" parent="DAw_pJzwPGBeUhE9D7Gm-52">
          <mxGeometry y="60" width="320" height="30" as="geometry" />
        </mxCell>
        <mxCell id="DAw_pJzwPGBeUhE9D7Gm-57" value="&lt;span style=&quot;font-weight: 400;&quot;&gt;table&lt;/span&gt;" style="shape=partialRectangle;connectable=0;fillColor=none;top=0;left=0;bottom=0;right=0;fontStyle=1;overflow=hidden;whiteSpace=wrap;html=1;" vertex="1" parent="DAw_pJzwPGBeUhE9D7Gm-56">
          <mxGeometry width="66" height="30" as="geometry">
            <mxRectangle width="66" height="30" as="alternateBounds" />
          </mxGeometry>
        </mxCell>
        <mxCell id="DAw_pJzwPGBeUhE9D7Gm-58" value="&lt;span style=&quot;font-weight: 400;&quot;&gt;String&lt;/span&gt;" style="shape=partialRectangle;connectable=0;fillColor=none;top=0;left=0;bottom=0;right=0;align=left;spacingLeft=6;fontStyle=5;overflow=hidden;whiteSpace=wrap;html=1;" vertex="1" parent="DAw_pJzwPGBeUhE9D7Gm-56">
          <mxGeometry x="66" width="254" height="30" as="geometry">
            <mxRectangle width="254" height="30" as="alternateBounds" />
          </mxGeometry>
        </mxCell>
        <mxCell id="DAw_pJzwPGBeUhE9D7Gm-76" value="" style="shape=tableRow;horizontal=0;startSize=0;swimlaneHead=0;swimlaneBody=0;fillColor=none;collapsible=0;dropTarget=0;points=[[0,0.5],[1,0.5]];portConstraint=eastwest;top=0;left=0;right=0;bottom=1;" vertex="1" parent="DAw_pJzwPGBeUhE9D7Gm-52">
          <mxGeometry y="90" width="320" height="30" as="geometry" />
        </mxCell>
        <mxCell id="DAw_pJzwPGBeUhE9D7Gm-77" value="&lt;span style=&quot;font-weight: 400;&quot;&gt;status&lt;/span&gt;" style="shape=partialRectangle;connectable=0;fillColor=none;top=0;left=0;bottom=0;right=0;fontStyle=1;overflow=hidden;whiteSpace=wrap;html=1;" vertex="1" parent="DAw_pJzwPGBeUhE9D7Gm-76">
          <mxGeometry width="66" height="30" as="geometry">
            <mxRectangle width="66" height="30" as="alternateBounds" />
          </mxGeometry>
        </mxCell>
        <mxCell id="DAw_pJzwPGBeUhE9D7Gm-78" value="&lt;span style=&quot;font-weight: 400;&quot;&gt;Enum(&#39;waiting&#39;, &#39;in_production&#39;, &#39;done&#39;}&lt;/span&gt;" style="shape=partialRectangle;connectable=0;fillColor=none;top=0;left=0;bottom=0;right=0;align=left;spacingLeft=6;fontStyle=5;overflow=hidden;whiteSpace=wrap;html=1;" vertex="1" parent="DAw_pJzwPGBeUhE9D7Gm-76">
          <mxGeometry x="66" width="254" height="30" as="geometry">
            <mxRectangle width="254" height="30" as="alternateBounds" />
          </mxGeometry>
        </mxCell>
        <mxCell id="DAw_pJzwPGBeUhE9D7Gm-59" value="" style="shape=tableRow;horizontal=0;startSize=0;swimlaneHead=0;swimlaneBody=0;fillColor=none;collapsible=0;dropTarget=0;points=[[0,0.5],[1,0.5]];portConstraint=eastwest;top=0;left=0;right=0;bottom=1;" vertex="1" parent="DAw_pJzwPGBeUhE9D7Gm-52">
          <mxGeometry y="120" width="320" height="30" as="geometry" />
        </mxCell>
        <mxCell id="DAw_pJzwPGBeUhE9D7Gm-60" value="&lt;span style=&quot;font-weight: 400;&quot;&gt;creatart&lt;/span&gt;" style="shape=partialRectangle;connectable=0;fillColor=none;top=0;left=0;bottom=0;right=0;fontStyle=1;overflow=hidden;whiteSpace=wrap;html=1;" vertex="1" parent="DAw_pJzwPGBeUhE9D7Gm-59">
          <mxGeometry width="66" height="30" as="geometry">
            <mxRectangle width="66" height="30" as="alternateBounds" />
          </mxGeometry>
        </mxCell>
        <mxCell id="DAw_pJzwPGBeUhE9D7Gm-61" value="&lt;span style=&quot;font-weight: 400;&quot;&gt;Date&lt;/span&gt;" style="shape=partialRectangle;connectable=0;fillColor=none;top=0;left=0;bottom=0;right=0;align=left;spacingLeft=6;fontStyle=5;overflow=hidden;whiteSpace=wrap;html=1;" vertex="1" parent="DAw_pJzwPGBeUhE9D7Gm-59">
          <mxGeometry x="66" width="254" height="30" as="geometry">
            <mxRectangle width="254" height="30" as="alternateBounds" />
          </mxGeometry>
        </mxCell>
        <mxCell id="DAw_pJzwPGBeUhE9D7Gm-62" value="" style="shape=tableRow;horizontal=0;startSize=0;swimlaneHead=0;swimlaneBody=0;fillColor=none;collapsible=0;dropTarget=0;points=[[0,0.5],[1,0.5]];portConstraint=eastwest;top=0;left=0;right=0;bottom=1;" vertex="1" parent="DAw_pJzwPGBeUhE9D7Gm-52">
          <mxGeometry y="150" width="320" height="30" as="geometry" />
        </mxCell>
        <mxCell id="DAw_pJzwPGBeUhE9D7Gm-63" value="&lt;span style=&quot;font-weight: 400;&quot;&gt;products&lt;/span&gt;" style="shape=partialRectangle;connectable=0;fillColor=none;top=0;left=0;bottom=0;right=0;fontStyle=1;overflow=hidden;whiteSpace=wrap;html=1;" vertex="1" parent="DAw_pJzwPGBeUhE9D7Gm-62">
          <mxGeometry width="66" height="30" as="geometry">
            <mxRectangle width="66" height="30" as="alternateBounds" />
          </mxGeometry>
        </mxCell>
        <mxCell id="DAw_pJzwPGBeUhE9D7Gm-64" value="&lt;span style=&quot;font-weight: 400;&quot;&gt;[{ product: objectid, quantify: number}]&lt;/span&gt;" style="shape=partialRectangle;connectable=0;fillColor=none;top=0;left=0;bottom=0;right=0;align=left;spacingLeft=6;fontStyle=5;overflow=hidden;whiteSpace=wrap;html=1;" vertex="1" parent="DAw_pJzwPGBeUhE9D7Gm-62">
          <mxGeometry x="66" width="254" height="30" as="geometry">
            <mxRectangle width="254" height="30" as="alternateBounds" />
          </mxGeometry>
        </mxCell>
        <mxCell id="DAw_pJzwPGBeUhE9D7Gm-74" value="" style="edgeStyle=entityRelationEdgeStyle;fontSize=12;html=1;endArrow=ERmany;rounded=0;entryX=0;entryY=0.5;entryDx=0;entryDy=0;exitX=1;exitY=0.5;exitDx=0;exitDy=0;" edge="1" parent="1" source="DAw_pJzwPGBeUhE9D7Gm-6" target="DAw_pJzwPGBeUhE9D7Gm-46">
          <mxGeometry width="100" height="100" relative="1" as="geometry">
            <mxPoint x="360" y="470" as="sourcePoint" />
            <mxPoint x="590" y="340" as="targetPoint" />
          </mxGeometry>
        </mxCell>
        <mxCell id="DAw_pJzwPGBeUhE9D7Gm-75" value="" style="edgeStyle=entityRelationEdgeStyle;fontSize=12;html=1;endArrow=ERmany;startArrow=ERmany;rounded=0;exitX=1.005;exitY=0.079;exitDx=0;exitDy=0;exitPerimeter=0;entryX=0;entryY=0.5;entryDx=0;entryDy=0;" edge="1" parent="1" source="DAw_pJzwPGBeUhE9D7Gm-27" target="DAw_pJzwPGBeUhE9D7Gm-62">
          <mxGeometry width="100" height="100" relative="1" as="geometry">
            <mxPoint x="360" y="470" as="sourcePoint" />
            <mxPoint x="460" y="370" as="targetPoint" />
          </mxGeometry>
        </mxCell>
      </root>
    </mxGraphModel>
  </diagram>
</mxfile>
